<svg width="251" height="66" viewBox="0 0 251 66" fill="none" xmlns="http://www.w3.org/2000/svg">
<path d="M39.4862 54.9078C39.4862 54.9078 17.2089 62.2248 6.70356 54.9078C-8.37945 44.4024 6.70356 7.84033 6.70356 7.84033H18.5527C18.5527 7.84033 5.81165 38.0978 18.5527 45.231C25.6859 49.2245 39.4862 45.231 39.4862 45.231V54.9078Z" fill="hsl(0 0 10%)"/>
<circle cx="30.1705" cy="27.0399" r="8.22857" fill="hsl(0 0 10%)"/>
<path d="M92.9535 53H65.6347V13.7771H75.509V44.936H92.9535V53ZM114.471 41.1509V24.9131H123.248V53H114.471V48.9406H114.361C112.88 51.5189 110.137 53.8777 105.145 53.8777C99.7143 53.8777 96.0388 50.312 96.0388 43.8937V24.9131H104.816V41.096C104.816 45.32 106.297 46.7463 109.205 46.7463C112.551 46.7463 114.471 45.0457 114.471 41.1509ZM162.638 24.0354C168.289 24.0354 171.635 27.6011 171.635 34.0194V53H162.748V36.8171C162.748 32.5931 161.87 31.1669 158.744 31.1669C155.946 31.1669 154.19 32.8674 154.19 36.7623V53H145.413V36.8171C145.413 32.5931 144.536 31.1669 141.409 31.1669C138.666 31.1669 136.856 32.8674 136.856 36.7623V53H128.078V24.9131H136.856V28.9726H136.965C138.446 26.3943 141.518 24.0354 145.742 24.0354C149.418 24.0354 151.996 26.0651 153.093 28.9726H153.203C155.617 26.1749 158.085 24.0354 162.638 24.0354ZM185.07 21.5669H176.293V13.7771H185.07V21.5669ZM185.07 53H176.293V24.9131H185.07V53ZM208.003 24.0354C213.434 24.0354 217.109 27.6011 217.109 34.0194V53H208.332V36.8171C208.332 32.5931 206.851 31.1669 203.943 31.1669C200.597 31.1669 198.677 32.8674 198.677 36.7623V53H189.9V24.9131H198.677V28.9726H198.787C200.268 26.3943 203.011 24.0354 208.003 24.0354ZM229.565 53.8777C224.079 53.8777 220.623 50.6411 220.623 45.6491C220.623 39.8343 225.395 37.5851 231.375 36.3234C234.447 35.6651 238.781 35.2263 238.781 32.4286C238.781 30.8926 237.574 29.9051 235.05 29.9051C231.814 29.9051 230.333 31.2217 230.058 33.9646H221.72C221.994 28.5886 225.944 23.9806 235.434 23.9806C243.059 23.9806 247.283 27.0526 247.283 35.6651V46.5269C247.283 48.008 247.448 48.6663 248.326 48.6663C248.545 48.6663 248.71 48.6663 249.039 48.6114V52.7806C247.283 53.1097 245.473 53.2743 244.211 53.2743C240.701 53.2743 239.384 51.9577 238.945 49.5989H238.835C236.861 52.0674 233.624 53.8777 229.565 53.8777ZM233.24 47.8434C236.751 47.8434 238.781 44.8811 238.781 41.6446V39.2857C237.629 39.7246 236.312 40.0537 234.008 40.6023C230.771 41.3703 229.619 42.7417 229.619 44.7166C229.619 46.856 230.991 47.8434 233.24 47.8434Z" fill="hsl(0 0 10%)"/>
</svg>
